<?xml version="1.0" standalone="no"?>
<!DOCTYPE svg PUBLIC "-//W3C//DTD SVG 20010904//EN"
 "http://www.w3.org/TR/2001/REC-SVG-20010904/DTD/svg10.dtd">
<svg version="1.0" xmlns="http://www.w3.org/2000/svg"
 width="917.000000pt" height="914.000000pt" viewBox="0 0 917.000000 914.000000"
 preserveAspectRatio="xMidYMid meet">

<g transform="translate(0.000000,914.000000) scale(0.100000,-0.100000)"
fill="#000000" stroke="none">
<path d="M4235 9134 c-420 -41 -770 -115 -1136 -240 -418 -143 -759 -313
-1139 -567 -264 -176 -643 -522 -876 -798 -112 -132 -287 -370 -383 -519 -167
-261 -400 -742 -465 -960 -115 -387 -169 -633 -213 -975 -15 -113 -18 -212
-18 -520 0 -337 3 -398 22 -541 60 -434 163 -830 300 -1154 253 -599 587
-1095 1025 -1526 432 -424 906 -743 1444 -972 599 -255 1362 -389 2003 -353
919 51 1716 330 2473 864 254 178 455 352 651 562 212 228 328 373 504 635
370 549 617 1219 715 1940 20 146 23 207 23 530 0 395 -13 564 -61 830 -107
591 -346 1189 -680 1698 -264 402 -592 758 -1009 1093 -618 497 -1422 832
-2280 950 -124 17 -212 22 -505 24 -195 1 -373 1 -395 -1z m607 -399 c758 -64
1396 -283 2008 -690 369 -246 736 -592 1013 -953 391 -512 660 -1110 786
-1752 79 -401 93 -934 35 -1340 -78 -548 -259 -1068 -537 -1542 -41 -69 -82
-146 -91 -169 -10 -24 -26 -55 -37 -71 -11 -15 -35 -60 -54 -100 -68 -147
-246 -358 -405 -483 -36 -27 -116 -100 -180 -161 -63 -61 -161 -145 -218 -185
-109 -78 -262 -178 -274 -179 -4 0 -78 -41 -165 -91 -548 -316 -1067 -491
-1673 -566 -182 -22 -701 -25 -885 -5 -448 50 -839 156 -1297 351 -53 23 -104
41 -114 41 -33 0 -121 47 -166 87 -24 22 -79 61 -123 88 -122 74 -320 210
-420 288 -415 325 -796 760 -1064 1215 -249 422 -433 934 -515 1432 -68 418
-67 930 4 1340 95 544 288 1056 564 1495 57 91 263 365 376 499 110 133 357
376 500 494 181 149 342 261 609 423 284 173 387 226 466 239 54 9 112 29 344
117 154 58 476 128 730 158 292 36 524 41 783 20z"/>
<path d="M2807 8039 c-49 -11 -128 -64 -189 -124 -51 -51 -82 -120 -139 -305
l-32 -105 7 -165 c10 -265 37 -384 136 -593 l32 -67 -22 -35 c-12 -19 -24 -35
-27 -35 -3 0 -34 14 -70 31 -71 34 -93 32 -93 -5 0 -19 11 -31 44 -51 67 -39
72 -48 51 -94 -17 -38 -17 -39 5 -61 12 -12 23 -20 25 -18 33 40 175 264 175
278 0 11 -11 29 -24 42 -24 23 -75 135 -115 256 -24 71 -44 272 -43 425 2 117
27 227 79 337 20 41 42 89 50 106 36 78 110 114 231 114 53 0 79 -7 151 -39
47 -21 97 -42 111 -46 14 -4 36 -15 50 -25 53 -36 310 -172 511 -269 l107 -52
41 21 c22 12 60 24 83 27 24 3 63 12 88 20 81 26 142 34 405 48 342 19 575 19
619 1 18 -7 86 -21 152 -31 65 -9 152 -29 194 -45 41 -15 116 -37 165 -49 50
-12 149 -41 220 -66 392 -132 692 -175 983 -140 176 22 404 17 467 -9 124 -52
209 -121 264 -214 33 -57 41 -84 56 -182 20 -125 15 -177 -24 -277 -11 -26
-22 -59 -25 -74 -8 -38 -111 -187 -174 -252 -65 -67 -227 -200 -304 -250 -29
-19 -66 -48 -82 -66 -17 -17 -35 -31 -41 -31 -6 0 -24 30 -39 67 -26 64 -27
68 -10 78 10 5 38 28 63 51 26 22 73 59 106 81 34 23 67 49 75 58 8 10 47 39
86 66 76 51 123 102 169 184 53 95 72 140 78 187 7 51 -14 169 -34 196 -33 43
-127 139 -151 154 -34 21 -156 58 -194 58 -16 0 -61 7 -99 15 -39 8 -131 18
-206 21 -111 6 -146 4 -185 -9 -27 -9 -85 -18 -129 -22 -110 -8 -256 -35 -282
-51 -12 -8 -27 -14 -32 -14 -5 0 -57 33 -116 73 -58 39 -125 84 -148 100 -48
31 -195 84 -337 121 -270 71 -817 120 -1050 96 -58 -7 -197 -14 -310 -16 -113
-2 -256 -8 -319 -14 -127 -12 -118 -15 -197 68 -18 17 -39 32 -47 32 -8 0 -44
13 -79 28 -34 16 -94 39 -133 52 -38 12 -120 42 -182 66 -89 34 -130 45 -202
50 -86 6 -93 5 -146 -22 -65 -32 -100 -69 -114 -120 -6 -20 -17 -44 -25 -53
-26 -29 -37 -147 -33 -371 4 -233 0 -210 76 -403 9 -24 6 -37 -20 -90 -18 -34
-48 -87 -69 -117 -37 -55 -93 -166 -104 -206 -4 -14 1 -27 14 -39 20 -18 22
-17 110 25 72 34 93 40 104 30 23 -19 10 -35 -75 -91 l-80 -52 3 -41 c3 -38 7
-44 73 -89 95 -65 98 -69 82 -91 -12 -16 -19 -15 -105 28 l-93 45 -34 -20
c-33 -20 -33 -21 -40 -107 -3 -48 -7 -96 -8 -107 -3 -32 -40 -26 -53 10 l-11
30 -7 -40 c-3 -22 -13 -60 -22 -85 -9 -25 -18 -55 -21 -67 -5 -22 -10 -23 -93
-23 l-87 0 8 45 c5 25 15 58 24 74 8 17 29 69 46 116 17 48 39 103 49 123 10
20 15 38 10 40 -16 6 -91 -39 -98 -58 -4 -11 -46 -44 -93 -73 -81 -49 -199
-149 -331 -279 -71 -70 -76 -102 -27 -182 38 -61 53 -122 69 -276 7 -63 18
-132 25 -152 10 -31 10 -39 -3 -52 -11 -11 -15 -37 -14 -103 0 -169 16 -263
59 -361 l24 -54 -20 -80 c-11 -43 -23 -83 -27 -89 -3 -6 -17 -50 -30 -97 -54
-196 -16 -354 132 -542 63 -81 158 -160 194 -160 10 -1 7 -8 -11 -23 -14 -12
-28 -29 -32 -38 -3 -9 -43 -41 -89 -72 -100 -68 -280 -249 -358 -361 -30 -44
-67 -93 -81 -110 -15 -17 -48 -65 -74 -106 -26 -41 -59 -93 -73 -115 -14 -22
-33 -51 -42 -65 -9 -14 -34 -59 -55 -100 -22 -41 -54 -100 -72 -130 -42 -70
-43 -109 -4 -147 39 -40 170 -87 316 -113 165 -31 355 -77 450 -111 132 -46
254 -77 370 -95 60 -9 175 -34 255 -56 80 -22 181 -46 225 -53 44 -7 163 -27
265 -44 237 -39 301 -49 375 -56 33 -3 89 -12 125 -20 170 -38 563 -54 1420
-59 821 -5 1123 9 1401 65 53 10 135 23 181 28 67 6 115 20 224 64 76 30 171
65 209 78 232 75 456 309 554 582 30 83 44 262 31 397 -13 124 -74 343 -151
535 -21 55 -39 104 -39 108 0 5 -12 37 -26 73 l-25 64 22 102 c16 78 23 150
26 293 5 186 4 193 -26 325 -50 216 -126 415 -188 497 -27 35 -108 93 -130 93
-11 0 -13 -10 -8 -43 6 -39 5 -44 -19 -55 -25 -11 -26 -15 -26 -91 0 -44 -2
-85 -5 -93 -4 -10 16 -13 95 -14 74 0 104 -4 114 -15 17 -18 68 -175 102 -313
26 -105 27 -116 21 -295 -6 -173 -15 -240 -46 -334 -7 -19 -18 -38 -26 -41
-24 -9 -17 -40 15 -71 16 -15 35 -44 41 -64 6 -20 30 -79 52 -131 22 -52 52
-137 67 -190 16 -52 39 -124 53 -160 13 -36 29 -110 36 -165 7 -55 14 -111 16
-125 5 -36 -23 -189 -40 -212 -7 -11 -11 -26 -9 -33 3 -7 -13 -50 -35 -96 -23
-46 -41 -90 -41 -98 0 -18 -68 -109 -134 -179 -50 -54 -175 -141 -264 -186
-55 -27 -243 -98 -321 -122 -81 -24 -253 -55 -366 -65 -55 -5 -140 -14 -190
-19 -49 -6 -180 -15 -290 -20 -110 -6 -229 -15 -265 -20 -110 -16 -1057 -12
-1207 5 -70 8 -209 19 -308 25 -99 6 -211 15 -250 20 -38 5 -99 10 -135 10
-36 1 -83 7 -105 15 -40 15 -87 22 -180 29 -97 7 -668 100 -708 115 -20 8 -24
20 -36 102 -7 52 -29 141 -48 199 -19 58 -41 129 -49 158 -16 61 -80 184 -134
257 -20 28 -52 77 -70 111 l-34 61 44 91 c36 76 41 94 30 107 -19 23 -46 18
-69 -11 -12 -15 -21 -31 -21 -35 0 -5 -27 -50 -60 -101 -61 -94 -69 -122 -38
-142 13 -8 22 -6 37 9 12 10 23 16 25 14 1 -2 20 -33 41 -69 20 -35 48 -77 61
-93 29 -35 100 -181 125 -257 10 -30 28 -82 40 -115 19 -53 53 -235 44 -243
-5 -6 -280 50 -343 70 -35 11 -90 21 -122 23 -32 1 -62 5 -67 8 -9 5 -210 66
-313 94 -30 8 -93 23 -140 33 -200 43 -233 52 -295 82 -36 17 -64 34 -63 38
32 75 152 293 185 337 25 32 55 79 69 105 13 26 43 71 67 100 23 29 75 98 114
153 103 144 199 238 340 334 67 45 127 89 134 97 24 30 119 2 119 -35 0 -6 4
-11 8 -11 4 0 25 -16 47 -35 40 -37 51 -36 57 4 4 30 104 115 124 107 8 -3 21
-9 29 -12 9 -4 18 1 22 12 4 12 -2 24 -21 39 -24 19 -27 25 -17 44 17 32 6 41
-51 41 -64 0 -124 17 -165 47 -46 34 -53 30 -53 -31 0 -59 -9 -72 -37 -57 -10
6 -36 18 -58 27 -96 42 -156 87 -221 170 -73 94 -93 136 -119 246 -17 71 -17
80 -2 145 9 37 24 101 32 140 9 40 20 75 25 78 4 2 19 -13 33 -34 26 -39 81
-81 166 -127 25 -13 74 -42 108 -64 52 -33 128 -67 206 -94 25 -8 57 11 57 34
0 15 -15 27 -56 45 -31 14 -62 25 -68 25 -7 0 -27 11 -46 25 -19 14 -40 25
-47 25 -16 0 -153 89 -153 99 0 5 -24 33 -52 62 -123 126 -199 320 -197 509
l0 65 65 -132 c59 -120 71 -138 141 -203 42 -39 96 -82 120 -96 24 -15 43 -33
43 -43 0 -40 237 -211 293 -211 6 0 39 -14 73 -31 l63 -30 112 10 c72 7 125
17 148 29 20 11 60 27 89 36 63 21 199 111 207 137 3 10 34 33 69 52 l62 33 3
-41 c3 -50 21 -106 55 -167 46 -80 207 -168 309 -168 l44 0 16 -59 c17 -62 61
-122 124 -172 52 -42 96 -51 188 -39 88 11 150 42 301 152 44 32 87 58 95 58
21 0 170 86 199 115 20 20 23 29 14 43 -15 23 -42 27 -62 9 -9 -9 -53 -35 -97
-59 l-80 -43 -140 1 c-131 0 -144 2 -205 28 -35 16 -89 46 -119 67 -30 21 -59
39 -65 39 -6 0 -42 -16 -81 -35 -82 -40 -139 -45 -213 -17 -99 38 -192 125
-192 180 0 10 -5 23 -10 28 -6 6 -11 36 -12 68 l-2 57 74 74 c41 41 82 75 91
75 9 0 24 9 34 20 10 11 24 20 32 20 18 0 17 -35 -2 -50 -19 -16 -19 -73 -1
-108 8 -15 40 -51 73 -80 l58 -53 67 3 c63 3 71 6 109 43 46 45 81 111 73 141
-3 13 9 33 45 69 50 48 52 49 115 50 57 0 66 -2 75 -21 13 -28 181 -224 192
-224 5 0 9 -9 9 -21 0 -32 55 -95 124 -141 33 -23 79 -56 102 -75 23 -18 44
-33 48 -33 4 0 41 -23 82 -50 41 -28 130 -78 197 -113 113 -58 143 -71 238
-110 81 -33 229 -59 293 -52 83 9 143 9 193 0 34 -6 63 -1 160 30 167 52 255
101 372 206 136 122 157 164 163 321 3 65 3 120 -1 123 -8 9 -7 75 1 75 4 0
28 -5 53 -12 37 -10 45 -16 45 -35 0 -13 10 -63 22 -111 18 -75 27 -92 60
-123 21 -20 38 -40 38 -46 0 -5 -76 -88 -170 -183 -140 -143 -181 -192 -241
-286 -39 -63 -84 -131 -101 -151 -16 -20 -41 -58 -55 -85 -14 -26 -29 -48 -32
-48 -110 -6 -132 -11 -213 -48 -179 -83 -346 -224 -408 -346 -37 -72 -38 -111
-1 -111 19 0 30 12 53 53 52 96 109 161 206 234 128 95 234 141 324 140 63 0
69 1 93 30 14 17 35 49 47 72 11 22 42 68 67 101 43 55 72 98 124 188 11 18
47 59 80 92 132 129 337 342 337 352 0 14 -21 37 -58 62 -35 24 -62 68 -62
100 0 10 15 36 33 56 97 109 122 127 167 118 18 -3 41 0 55 7 13 7 35 10 49 8
l26 -5 0 87 0 88 -57 32 c-57 32 -58 33 -88 15 -92 -53 -238 -125 -255 -125
-11 0 -24 9 -30 19 -12 23 16 46 169 136 l102 60 -4 38 c-4 26 -1 37 8 37 7 0
23 8 35 18 l22 18 -41 28 c-44 31 -45 33 -32 55 6 9 18 11 34 7 20 -5 30 -1
42 16 l16 23 28 -32 c44 -52 61 -40 61 40 0 49 7 62 36 69 20 5 22 0 27 -55 4
-42 12 -66 26 -80 l21 -21 52 23 c58 26 113 33 113 14 0 -6 -29 -33 -65 -60
-40 -30 -66 -57 -68 -71 -4 -29 13 -28 50 3 16 14 33 25 37 25 4 0 20 -27 36
-59 22 -47 36 -63 66 -76 36 -17 39 -17 71 2 20 11 38 32 45 53 14 41 17 146
4 154 -5 3 -12 32 -16 63 -6 57 -41 179 -69 246 -12 30 -17 33 -45 29 -26 -4
-31 -1 -31 16 0 35 -19 35 -73 0 -58 -39 -118 -71 -121 -66 -1 2 -8 23 -15 48
-6 25 -16 54 -21 65 -19 42 -80 199 -80 207 0 4 16 8 36 8 40 0 114 19 114 30
0 3 -10 15 -23 26 -19 17 -33 19 -94 16 l-72 -4 -20 33 c-12 19 -21 39 -21 46
0 13 54 58 225 186 190 144 340 328 392 481 45 134 64 219 57 266 -22 167 -37
222 -81 295 -80 133 -224 239 -362 265 -68 13 -208 13 -286 0 -33 -5 -148 -10
-255 -11 -189 -1 -318 10 -475 42 -91 18 -340 87 -388 108 -23 10 -106 35
-182 54 -77 20 -176 50 -220 67 -44 16 -92 30 -107 30 -43 0 -41 16 8 64 52
52 58 89 14 94 -18 2 -46 -15 -103 -64 -90 -75 -108 -77 -150 -17 -30 45 -85
103 -96 103 -5 0 -14 -7 -21 -15 -10 -12 -7 -23 14 -59 14 -25 26 -46 26 -48
0 -2 -96 -5 -212 -6 -251 -3 -511 -17 -623 -34 -131 -18 -127 -20 -155 37 -17
35 -32 51 -48 53 -30 5 -38 -20 -22 -71 7 -23 14 -46 14 -50 1 -5 -27 -18 -62
-29 -59 -20 -66 -20 -91 -5 -14 8 -56 27 -92 40 -36 14 -126 59 -200 100 -228
128 -456 240 -509 251 -55 11 -137 13 -173 5z m829 -2051 c66 -18 181 -118
216 -189 47 -95 80 -181 82 -211 1 -26 -5 -33 -48 -56 -29 -15 -62 -44 -79
-69 -17 -24 -36 -43 -41 -43 -6 0 -46 27 -89 60 -105 81 -152 78 -152 -11 0
-44 -4 -46 -66 -24 -45 16 -129 36 -259 60 -98 19 -391 93 -530 134 l-25 8 30
15 c72 37 175 51 365 52 181 1 186 0 243 -26 31 -15 57 -31 57 -35 1 -13 96
-113 108 -113 26 0 21 24 -12 65 -50 61 -68 108 -69 184 -1 82 15 129 54 160
62 48 132 61 215 39z m1735 -114 c36 -32 34 -74 -10 -192 -22 -61 -65 -158
-96 -216 -31 -58 -54 -106 -50 -106 3 0 21 11 38 24 108 81 317 115 447 73 30
-10 87 -22 125 -27 95 -13 164 -36 199 -66 15 -14 27 -27 25 -29 -2 -2 -85 -6
-184 -9 -99 -4 -216 -8 -260 -10 -102 -6 -261 -30 -277 -44 -13 -9 -66 -15
-268 -28 -52 -3 -99 -10 -105 -15 -5 -5 -32 -9 -60 -8 -43 1 -46 2 -22 9 25 8
131 89 149 115 13 18 9 45 -8 52 -22 8 -176 -32 -217 -57 -40 -25 -67 -26 -67
-2 0 9 -9 33 -19 53 -18 33 -18 38 -4 52 9 8 25 31 37 50 97 162 197 279 281
329 42 25 186 84 220 91 28 5 103 -18 126 -39z m-3193 -75 c-11 -35 -24 -72
-27 -81 -6 -16 -9 -16 -49 2 l-43 19 66 67 c35 37 67 65 70 63 3 -3 -5 -34
-17 -70z m4922 -363 c0 -3 -4 -8 -10 -11 -5 -3 -10 -1 -10 4 0 6 5 11 10 11 6
0 10 -2 10 -4z m0 -68 c0 -5 -6 -8 -14 -8 -9 0 -12 7 -9 21 4 16 8 17 14 7 5
-7 9 -16 9 -20z m-4538 -114 c106 -54 302 -176 478 -298 139 -96 176 -126 157
-126 -88 0 -330 130 -507 271 -85 67 -201 179 -187 179 4 0 31 -12 59 -26z
m4214 -48 c10 -8 15 -18 11 -22 -4 -4 -17 2 -29 14 -25 25 -13 30 18 8z
m-4136 -297 c142 -107 252 -169 395 -224 119 -46 110 -57 -25 -30 -158 33
-250 74 -381 171 -92 68 -205 181 -280 279 -82 107 -73 110 37 10 60 -53 174
-146 254 -206z m504 196 c59 -18 113 -50 126 -76 9 -16 7 -19 -12 -19 -42 0
-102 22 -156 56 -77 50 -56 69 42 39z m2094 -219 c57 -29 184 -103 272 -159
48 -31 357 -240 389 -264 2 -2 2 -6 -2 -9 -9 -9 -132 34 -211 73 -105 53 -232
134 -321 206 -82 67 -195 177 -182 177 4 0 29 -11 55 -24z m74 -342 c165 -124
206 -148 366 -215 67 -29 120 -54 117 -57 -9 -10 -161 22 -245 50 -47 17 -107
44 -135 60 -136 83 -281 216 -386 353 -82 107 -73 110 37 11 60 -54 171 -145
246 -202z m490 195 c84 -17 181 -84 150 -103 -29 -17 -231 81 -217 105 8 11 3
11 67 -2z m-1953 -165 c29 -24 41 -54 22 -54 -13 0 -60 40 -71 61 -16 28 12
25 49 -7z m171 -16 c0 -16 -41 -58 -57 -58 -24 0 -14 39 15 54 33 19 42 19 42
4z m85 -468 c3 0 30 -11 58 -24 57 -27 174 -51 212 -43 14 2 25 1 25 -2 -1 -3
-41 -29 -89 -58 -85 -51 -91 -53 -169 -54 -80 -2 -81 -2 -128 36 -45 37 -69
77 -80 133 -5 25 -1 29 43 48 l48 21 36 -29 c20 -15 40 -28 44 -28z"/>
<path d="M2439 6393 c-6 -16 -17 -41 -25 -57 -19 -38 -18 -46 5 -46 26 0 31
11 40 76 8 58 -3 72 -20 27z"/>
<path d="M2341 6180 c-25 -44 -22 -48 14 -24 15 10 25 26 25 40 0 35 -13 29
-39 -16z"/>
<path d="M4325 2973 c-60 -16 -130 -26 -208 -30 -123 -6 -144 -15 -117 -48 9
-11 36 -15 110 -15 53 0 99 -3 103 -6 7 -8 -48 -76 -116 -145 -51 -51 -56 -72
-18 -77 17 -3 42 15 99 70 43 41 109 99 147 130 104 83 131 114 115 133 -7 8
-15 15 -19 14 -3 -1 -46 -12 -96 -26z"/>
<path d="M2255 2920 c-14 -22 -47 -68 -73 -101 -72 -93 -75 -98 -68 -114 3 -8
16 -15 29 -15 18 0 35 15 67 63 24 34 54 72 66 85 29 30 57 90 50 108 -11 28
-45 15 -71 -26z"/>
<path d="M2033 2923 c-21 -8 -135 -184 -129 -199 8 -21 22 -17 62 19 113 98
157 217 67 180z"/>
<path d="M4105 2629 c-98 -57 -135 -87 -135 -110 0 -21 23 -35 43 -25 6 3 55
32 107 64 78 48 95 63 95 83 0 37 -31 34 -110 -12z"/>
<path d="M6948 2448 c-63 -51 -188 -175 -188 -188 0 -5 8 -14 18 -19 25 -13
100 32 184 112 71 68 93 103 76 125 -17 20 -33 14 -90 -30z"/>
<path d="M4105 2383 c-79 -96 -86 -134 -17 -96 37 21 106 117 99 138 -9 26
-38 11 -82 -42z"/>
<path d="M7025 2278 c-134 -119 -158 -145 -152 -162 11 -28 53 -18 104 25 104
88 143 132 143 161 0 43 -27 36 -95 -24z"/>
<path d="M7125 2160 c-12 -4 -54 -39 -95 -78 -70 -65 -74 -72 -59 -87 19 -20
29 -15 120 49 104 74 127 154 34 116z"/>
</g>
</svg>
